<svg version="1.2" xmlns="http://www.w3.org/2000/svg" viewBox="0 0 93 66" width="93" height="66">
	<title>logo-svg</title>
	<style>
		.s0 { fill: #ffffff } 
		.s1 { fill: #4b3018;stroke: #231f20;stroke-width: 1.5 } 
		.s2 { fill: #f68c45;stroke: #231f20;stroke-width: 1.5 } 
		.s3 { fill: #fbb042;stroke: #231f20;stroke-width: 1.5 } 
		.s4 { fill: #ffffff;stroke: #231f20;stroke-width: 1.5 } 
	</style>
	<g id="Layer_1-2">
		<g id="Layer">
			<g id="Layer">
				<path id="Layer" class="s0" d="m27.3 35c-0.8-0.1-1.8-0.1-3-0.1h-0.4v-17.4c0.5 0 0.9 0.1 1.1 0.1h0.5c0.7 0 1.3 0 1.7-0.1v7h6.1v-6.9c0.7 0 1.4 0.1 2.1 0.1 0.7 0 1.1 0 1.3-0.1v17.4c-0.2 0-1.1 0-2.3 0h-0.9v-7.4h-6.1v7.4z"/>
				<path id="Layer" class="s0" d="m48.5 31.8c0.5 0 0.9-0.1 1.1-0.2h0.1l-0.2 3.4h-9.8v-17.5c0.2 0 0.5 0 0.8 0h0.9c0.6 0 1.3 0 2 0 2 0 4 0 5.9-0.1-0.1 0.8-0.1 1.8-0.1 3.1q0 0.1 0 0.3c-0.5-0.1-1.1-0.2-1.9-0.2h-4.1v3.3h3.1c1 0 1.5 0 1.7-0.1v3.2c-0.4 0-1-0.1-1.6-0.1h-3.2v4.7h5.3z"/>
				<path id="Layer" fill-rule="evenodd" class="s0" d="m56.9 28.2c-0.3 0-0.5 0-0.8 0-0.3 0-0.7 0-1.3-0.1v6.9h-3.5v-17.5c1.2-0.2 2.7-0.2 4.5-0.2 2.4 0 4.2 0.4 5.4 1.3 1.2 0.9 1.8 2.3 1.8 4.1 0 1.4-0.5 2.7-1.6 3.7q-0.6 0.5-1.2 0.9l2.7 5.6c0.5 1.2 0.9 1.8 1.2 2.1l-0.1 0.1c-0.8-0.1-2.2-0.1-4 0zm-0.9-7.8c-0.4 0-0.9 0-1.3 0.1v5c0.4 0.1 0.9 0.1 1.5 0.1 0.6 0 1.1 0 1.5-0.2 0.4-0.1 0.7-0.3 1-0.5q0.9-0.7 0.9-2.1c0-0.9-0.3-1.6-1-1.9-0.5-0.4-1.4-0.5-2.6-0.5z"/>
				<path id="Layer" fill-rule="evenodd" class="s0" d="m66.4 32.9c-0.8-0.8-1.4-1.7-1.9-2.7-0.5-1.1-0.7-2.2-0.7-3.5q0-2 0.6-3.6 0.6-1.7 1.8-3c0.8-0.9 1.8-1.5 2.9-2.1 1.1-0.5 2.4-0.8 3.8-0.8 2.4 0 4.4 0.8 6.1 2.3 1.8 1.6 2.6 3.8 2.6 6.6q0 4-2.7 6.6c-1.1 1.1-2.4 1.8-4 2.2-0.8 0.2-1.6 0.3-2.7 0.3-1 0-2.1-0.2-3.1-0.6-1-0.4-1.9-0.9-2.7-1.7zm1.1-6.4c0 0.8 0.1 1.6 0.4 2.2 0.3 0.7 0.6 1.3 1.1 1.8q1.5 1.5 3.9 1.5c1.5 0 2.7-0.5 3.7-1.5 0.9-1 1.4-2.4 1.4-4.2 0-1.7-0.4-3-1.3-4.1-1-1.2-2.3-1.8-4-1.8q-2.4 0-3.9 1.8c-0.9 1.2-1.3 2.6-1.3 4.3z"/>
			</g>
			<g id="Layer">
				<path id="Layer" class="s0" d="m26.4 55.7c-1.3 0-2.1 0-2.5 0.1v-17.5c0.2 0.1 0.6 0.1 1.3 0.1 0.7 0 1.4 0 2.3-0.1v14.3h2.7c0.8 0 1.4 0 1.9-0.1-0.1 2-0.1 3.1-0.1 3.2v0.1c-0.9-0.1-2.3-0.1-4.3-0.1z"/>
				<path id="Layer" fill-rule="evenodd" class="s0" d="m34.5 53.6c-0.8-0.8-1.4-1.7-1.9-2.7-0.5-1.1-0.7-2.2-0.7-3.5q0-1.9 0.6-3.6 0.6-1.7 1.8-3c0.8-0.9 1.8-1.5 2.9-2.1 1.1-0.5 2.4-0.8 3.8-0.8 2.4 0 4.4 0.8 6.1 2.3 1.8 1.6 2.6 3.8 2.6 6.6q0 4-2.7 6.6c-1.1 1.1-2.4 1.8-4 2.2-0.8 0.2-1.6 0.3-2.7 0.3-1 0-2.1-0.2-3.1-0.6-0.9-0.3-1.9-0.9-2.7-1.7zm1.1-6.4c0 0.8 0.1 1.6 0.4 2.2 0.3 0.7 0.6 1.3 1.1 1.8q1.5 1.5 3.9 1.5c1.5 0 2.7-0.5 3.7-1.5 0.9-1 1.4-2.4 1.4-4.2 0-1.7-0.4-3-1.3-4.1-1-1.2-2.3-1.8-4-1.8q-2.4 0-3.9 1.8c-0.8 1.2-1.3 2.6-1.3 4.3z"/>
				<path id="Layer" fill-rule="evenodd" class="s0" d="m56.9 48.9c-0.3 0-0.5 0-0.8 0-0.3 0-0.7 0-1.3-0.1v6.8h-3.5v-17.4c1.2-0.2 2.7-0.2 4.5-0.2 2.4 0 4.2 0.4 5.4 1.3 1.2 0.9 1.8 2.3 1.8 4.1 0 1.4-0.5 2.7-1.6 3.7q-0.6 0.5-1.2 0.9l2.7 5.6c0.5 1.2 0.9 1.8 1.2 2.1l-0.1 0.1c-0.8-0.1-2.2-0.1-4 0zm-0.9-7.8c-0.4 0-0.9 0-1.3 0.1v5c0.4 0.1 0.9 0.1 1.5 0.1 0.6 0 1.1 0 1.5-0.2 0.4-0.1 0.7-0.3 1-0.5q0.9-0.7 0.9-2.1c0-0.9-0.3-1.6-1-1.9-0.5-0.3-1.4-0.5-2.6-0.5z"/>
				<path id="Layer" fill-rule="evenodd" class="s0" d="m69.2 56c-1.4 0-2.7-0.1-4-0.3v-17.5c1.1-0.1 2.5-0.2 4-0.2 1.5 0 2.9 0.2 4.1 0.6 1.2 0.4 2.3 1 3.1 1.8 1.7 1.5 2.5 3.7 2.5 6.4 0 3.1-0.9 5.4-2.8 7-1.6 1.5-3.9 2.2-6.9 2.2zm-0.6-3.2c0.6 0.1 1.1 0.2 1.7 0.2q0.9 0 1.8-0.3c0.7-0.2 1.2-0.6 1.7-1 1-1 1.5-2.4 1.5-4.3 0-3.1-1.1-5-3.4-5.7-0.7-0.2-1.6-0.4-2.6-0.4-0.1 0-0.6 0-0.7 0z"/>
				<path id="Layer" class="s0" d="m91.4 39.3l-0.2 3.8h-0.1c-0.6-1-1.7-1.6-3.3-1.9-0.5-0.1-1-0.1-1.4-0.1-0.4 0-0.8 0-1.1 0.1-0.3 0.1-0.6 0.2-0.8 0.3-0.5 0.3-0.7 0.7-0.7 1.2q0 1.1 0.6 1.5c0.5 0.4 1.4 0.7 2.6 0.8 1.2 0.2 2.2 0.4 2.9 0.7 0.7 0.3 1.3 0.6 1.8 1.1 0.9 0.8 1.3 1.9 1.3 3.4 0 1.9-0.7 3.4-2.2 4.4-1.2 1-2.8 1.4-4.7 1.4q-2.3 0-4.5-0.9c-0.5-0.2-0.9-0.4-1.3-0.7l0.1-4.4h0.1c1.1 1.9 2.9 2.8 5.3 2.8 1.8 0 2.9-0.4 3.5-1.3 0.2-0.3 0.3-0.6 0.3-1 0-0.4-0.1-0.6-0.2-0.9q-0.2-0.3-0.6-0.6c-0.5-0.3-1.4-0.6-2.5-0.7-1.2-0.1-2.2-0.3-2.9-0.6q-1.2-0.5-1.8-1.2c-0.8-0.8-1.2-2-1.2-3.5 0-1.5 0.5-2.8 1.6-3.8q1.6-1.5 4.5-1.5c1.9 0.3 3.5 0.7 4.9 1.6z"/>
			</g>
			<g id="Layer">
				<path id="Layer" class="s1" d="m6.7 3.5h3.3v7h-3.3z"/>
				<path id="Layer" class="s2" d="m3.7 10.5h9.2v3.6h-9.2z"/>
				<path id="Layer" class="s2" d="m0.8 14.2h15.1v3.6h-15.1z"/>
				<path id="Layer" class="s2" d="m5.5 0.8h5.6c0.8 0 1.4 0.6 1.4 1.4 0 0.8-0.6 1.4-1.4 1.4h-5.6c-0.8 0-1.4-0.6-1.4-1.4 0-0.8 0.6-1.4 1.4-1.4z"/>
				<path id="Layer" class="s3" d="m4.3 17.8l-2.3 39 6.3 6.3 6.3-6.3-2.1-39z"/>
				<path id="Layer" class="s4" d="m8.3 63.1v-26.9"/>
				<path id="Layer" class="s4" d="m8.3 17.8v14.7"/>
			</g>
		</g>
	</g>
</svg>