<?xml version="1.0" encoding="utf-8"?>
<!-- Generator: Adobe Illustrator 27.5.0, SVG Export Plug-In . SVG Version: 6.00 Build 0)  -->
<svg version="1.1" id="Layer_2_00000150065932558273076580000015696183605976775081_"
	 xmlns="http://www.w3.org/2000/svg" xmlns:xlink="http://www.w3.org/1999/xlink" x="0px" y="0px" viewBox="0 0 93 65.1"
	 style="enable-background:new 0 0 93 65.1;" xml:space="preserve">
<style type="text/css">
	.st0{enable-background:new    ;}
	.st1{fill:#1E1E1E;}
	.st2{fill:#4B3018;stroke:#231F20;stroke-width:1.5;stroke-miterlimit:10;}
	.st3{fill:#F68C45;stroke:#231F20;stroke-width:1.5;stroke-miterlimit:10;}
	.st4{fill:#FBB042;stroke:#231F20;stroke-width:1.5;stroke-miterlimit:10;}
	.st5{fill:none;stroke:#231F20;stroke-width:1.5;stroke-miterlimit:10;}
</style>
<g id="Layer_1-2">
	<g>
		<g class="st0">
			<path class="st1" d="M27.3,35c-0.8-0.1-1.8-0.1-3-0.1h-0.4V17.5c0.5,0,0.9,0.1,1.1,0.1h0.5c0.7,0,1.3,0,1.7-0.1v7h6.1v-6.9
				c0.7,0,1.4,0.1,2.1,0.1s1.1,0,1.3-0.1V35C36.5,35,35.6,35,34.4,35h-0.9v-7.4h-6.1V35z"/>
			<path class="st1" d="M48.5,31.8c0.5,0,0.9-0.1,1.1-0.2l0.1,0L49.5,35h-9.8V17.5c0.2,0,0.5,0,0.8,0l0.9,0c0.6,0,1.3,0,2,0
				c2,0,4,0,5.9-0.1c-0.1,0.8-0.1,1.8-0.1,3.1c0,0.1,0,0.2,0,0.3l0,0c-0.5-0.1-1.1-0.2-1.9-0.2h-4.1v3.3h3.1c1,0,1.5,0,1.7-0.1
				l0,3.2c-0.4,0-1-0.1-1.6-0.1h-3.2v4.7H48.5z"/>
			<path class="st1" d="M56.9,28.2c-0.3,0-0.5,0-0.8,0s-0.7,0-1.3-0.1V35h-3.5V17.5c1.2-0.2,2.7-0.2,4.5-0.2c2.4,0,4.2,0.4,5.4,1.3
				s1.8,2.3,1.8,4.1c0,1.4-0.5,2.7-1.6,3.7c-0.4,0.3-0.8,0.6-1.2,0.9l2.7,5.6c0.5,1.2,0.9,1.8,1.2,2.1l-0.1,0.1
				c-0.8-0.1-2.2-0.1-4,0L56.9,28.2z M56,20.4c-0.4,0-0.9,0-1.3,0.1v5c0.4,0.1,0.9,0.1,1.5,0.1c0.6,0,1.1,0,1.5-0.2
				c0.4-0.1,0.7-0.3,1-0.5c0.6-0.5,0.9-1.2,0.9-2.1s-0.3-1.6-1-1.9C58.1,20.5,57.2,20.4,56,20.4z"/>
			<path class="st1" d="M66.4,32.9c-0.8-0.8-1.4-1.7-1.9-2.7c-0.5-1.1-0.7-2.2-0.7-3.5c0-1.3,0.2-2.5,0.6-3.6c0.4-1.1,1-2.1,1.8-3
				s1.8-1.5,2.9-2.1c1.1-0.5,2.4-0.8,3.8-0.8c2.4,0,4.4,0.8,6.1,2.3c1.8,1.6,2.6,3.8,2.6,6.6c0,2.7-0.9,4.9-2.7,6.6
				c-1.1,1.1-2.4,1.8-4,2.2c-0.8,0.2-1.6,0.3-2.7,0.3c-1,0-2.1-0.2-3.1-0.6S67.2,33.7,66.4,32.9z M67.5,26.5c0,0.8,0.1,1.6,0.4,2.2
				c0.3,0.7,0.6,1.3,1.1,1.8c1,1,2.3,1.5,3.9,1.5c1.5,0,2.7-0.5,3.7-1.5c0.9-1,1.4-2.4,1.4-4.2c0-1.7-0.4-3-1.3-4.1
				c-1-1.2-2.3-1.8-4-1.8c-1.6,0-2.9,0.6-3.9,1.8C67.9,23.4,67.5,24.8,67.5,26.5z"/>
		</g>
		<g class="st0">
			<path class="st1" d="M26.4,55.7c-1.3,0-2.1,0-2.5,0.1V38.3c0.2,0.1,0.6,0.1,1.3,0.1c0.7,0,1.4,0,2.3-0.1v14.3h2.7
				c0.8,0,1.4,0,1.9-0.1c-0.1,2-0.1,3.1-0.1,3.2v0.1c-0.9-0.1-2.3-0.1-4.3-0.1H26.4z"/>
			<path class="st1" d="M34.5,53.6c-0.8-0.8-1.4-1.7-1.9-2.7c-0.5-1.1-0.7-2.2-0.7-3.5c0-1.3,0.2-2.5,0.6-3.6c0.4-1.1,1-2.1,1.8-3
				c0.8-0.9,1.8-1.5,2.9-2.1c1.1-0.5,2.4-0.8,3.8-0.8c2.4,0,4.4,0.8,6.1,2.3c1.8,1.6,2.6,3.8,2.6,6.6c0,2.7-0.9,4.9-2.7,6.6
				c-1.1,1.1-2.4,1.8-4,2.2c-0.8,0.2-1.6,0.3-2.7,0.3c-1,0-2.1-0.2-3.1-0.6C36.3,55,35.3,54.4,34.5,53.6z M35.6,47.2
				c0,0.8,0.1,1.6,0.4,2.2c0.3,0.7,0.6,1.3,1.1,1.8c1,1,2.3,1.5,3.9,1.5c1.5,0,2.7-0.5,3.7-1.5c0.9-1,1.4-2.4,1.4-4.2
				c0-1.7-0.4-3-1.3-4.1c-1-1.2-2.3-1.8-4-1.8c-1.6,0-2.9,0.6-3.9,1.8C36.1,44.1,35.6,45.5,35.6,47.2z"/>
			<path class="st1" d="M56.9,48.9c-0.3,0-0.5,0-0.8,0s-0.7,0-1.3-0.1v6.8h-3.5V38.2c1.2-0.2,2.7-0.2,4.5-0.2c2.4,0,4.2,0.4,5.4,1.3
				s1.8,2.3,1.8,4.1c0,1.4-0.5,2.7-1.6,3.7c-0.4,0.3-0.8,0.6-1.2,0.9l2.7,5.6c0.5,1.2,0.9,1.8,1.2,2.1l-0.1,0.1
				c-0.8-0.1-2.2-0.1-4,0L56.9,48.9z M56,41.1c-0.4,0-0.9,0-1.3,0.1v5c0.4,0.1,0.9,0.1,1.5,0.1c0.6,0,1.1,0,1.5-0.2
				c0.4-0.1,0.7-0.3,1-0.5c0.6-0.5,0.9-1.2,0.9-2.1s-0.3-1.6-1-1.9C58.1,41.3,57.2,41.1,56,41.1z"/>
			<path class="st1" d="M69.2,56c-1.4,0-2.7-0.1-4-0.3V38.2c1.1-0.1,2.5-0.2,4-0.2s2.9,0.2,4.1,0.6c1.2,0.4,2.3,1,3.1,1.8
				c1.7,1.5,2.5,3.7,2.5,6.4c0,3.1-0.9,5.4-2.8,7C74.5,55.3,72.2,56,69.2,56z M68.6,52.8c0.6,0.1,1.1,0.2,1.7,0.2s1.2-0.1,1.8-0.3
				c0.7-0.2,1.2-0.6,1.7-1c1-1,1.5-2.4,1.5-4.3c0-3.1-1.1-5-3.4-5.7c-0.7-0.2-1.6-0.4-2.6-0.4H69c-0.1,0-0.3,0-0.4,0V52.8z"/>
			<path class="st1" d="M91.4,39.3l-0.2,3.8l-0.1,0c-0.6-1-1.7-1.6-3.3-1.9c-0.5-0.1-1-0.1-1.4-0.1c-0.4,0-0.8,0-1.1,0.1
				c-0.3,0.1-0.6,0.2-0.8,0.3c-0.5,0.3-0.7,0.7-0.7,1.2c0,0.7,0.2,1.2,0.6,1.5c0.5,0.4,1.4,0.7,2.6,0.8c1.2,0.2,2.2,0.4,2.9,0.7
				c0.7,0.3,1.3,0.6,1.8,1.1c0.9,0.8,1.3,1.9,1.3,3.4c0,1.9-0.7,3.4-2.2,4.4C89.6,55.6,88,56,86.1,56c-1.5,0-3-0.3-4.5-0.9
				c-0.5-0.2-0.9-0.4-1.3-0.7l0.1-4.4l0.1,0c1.1,1.9,2.9,2.8,5.3,2.8c1.8,0,2.9-0.4,3.5-1.3c0.2-0.3,0.3-0.6,0.3-1s-0.1-0.6-0.2-0.9
				c-0.1-0.2-0.3-0.4-0.6-0.6c-0.5-0.3-1.4-0.6-2.5-0.7c-1.2-0.1-2.2-0.3-2.9-0.6c-0.8-0.3-1.4-0.7-1.8-1.2c-0.8-0.8-1.2-2-1.2-3.5
				c0-1.5,0.5-2.8,1.6-3.8c1.1-1,2.6-1.5,4.5-1.5C88.4,38,90,38.4,91.4,39.3z"/>
		</g>
		<g>
			<rect x="6.7" y="3.5" class="st2" width="3.3" height="7"/>
			<rect x="3.7" y="10.5" class="st3" width="9.2" height="3.6"/>
			<rect x="0.8" y="14.2" class="st3" width="15.1" height="3.6"/>
			<path class="st3" d="M5.5,0.8h5.6c0.8,0,1.4,0.6,1.4,1.4l0,0c0,0.8-0.6,1.4-1.4,1.4H5.5c-0.8,0-1.4-0.6-1.4-1.4l0,0
				C4.1,1.4,4.7,0.8,5.5,0.8z"/>
			<polygon class="st4" points="4.3,17.8 2,56.8 8.3,63.1 14.6,56.8 12.5,17.8 			"/>
			<line class="st5" x1="8.3" y1="63.1" x2="8.3" y2="36.2"/>
			<line class="st5" x1="8.3" y1="17.8" x2="8.3" y2="32.5"/>
		</g>
	</g>
</g>
</svg>
